<svg id="Livello_1" data-name="Livello 1" xmlns="http://www.w3.org/2000/svg" viewBox="0 0 100 100"><path d="M75.1,35.46c3.54,0,7,0,10.38,0A6.27,6.27,0,0,1,90,37.38c1,1,1.9,2,2.84,3.08,1.64,1.79,3.2,3.65,4.93,5.35a7.64,7.64,0,0,1,2.16,6.72c-.35,3.45-.6,6.92-.91,10.38a9,9,0,0,1-.31,2c-.5,1.5-1.83,2.08-3.56,1.83a31.08,31.08,0,0,0-1.46-5,8.86,8.86,0,0,0-9.49-4.6,10.94,10.94,0,0,0-9.09,9.12c-.09.53-.36.57-.77.56-1.21,0-2.43,0-3.64,0H43.78a29.14,29.14,0,0,0-1-4.25,8.83,8.83,0,0,0-10.06-5.38,10.81,10.81,0,0,0-9,9.07c0,.15-.08.29-.14.51-2.38,0-4.77.07-7.15,0-1.05,0-1.74-1.2-1.68-2.45s.16-2.29.26-3.44c.22-2.59.46-5.19.7-7.91h1c2.46,0,4.93,0,7.38,0A2.67,2.67,0,0,0,26,52.27a2,2,0,0,0,.25-1.68,1.72,1.72,0,0,0-1.31-.75c-2.15-.08-4.3,0-6.45,0H2.6c-.25,0-.5,0-.75,0A1.4,1.4,0,0,1,.39,48.5a1.52,1.52,0,0,1,1.09-1.65,4,4,0,0,1,1.29-.15H33.52c.4,0,.81,0,1.21,0a1.67,1.67,0,0,0,1.59-1.74c0-.86-.6-1.33-1.67-1.34H7.92c-1-.09-1.56-.6-1.58-1.37A1.77,1.77,0,0,1,7.89,40.5a7.82,7.82,0,0,1,.84,0H28.91a1.7,1.7,0,0,0,1.71-1.72c0-.89-.64-1.43-1.7-1.43-3.43,0-6.86,0-10.28,0H5.09c-1.28,0-1.8-.4-1.82-1.35s.67-1.67,1.9-1.67H32.74a2.09,2.09,0,0,0,2.1-.92,1.44,1.44,0,0,0-1.25-2.25c-.65,0-1.3,0-2,0H11.35c-1.27,0-1.83-.4-1.87-1.31a1.68,1.68,0,0,1,1.87-1.74c1.9,0,3.8,0,5.7,0,.6,0,.88-.13,1-.75a2.78,2.78,0,0,1,3-2.36H73.2a2.35,2.35,0,0,1,2.53,2.89C75.5,30.36,75.31,32.84,75.1,35.46Zm1.61,11.71h18.6l-1-1.14c-2-2.18-4-4.34-6-6.53A4.22,4.22,0,0,0,85,38.05c-1.87,0-3.74,0-5.61,0H77.5C77.23,41.15,77,44.13,76.71,47.17Z"/><path d="M41.48,66.21c0,6.12-6.71,10.39-12,7.66a7.34,7.34,0,0,1-3-9.73,8.56,8.56,0,0,1,9.76-4.84A6.9,6.9,0,0,1,41.48,66.21Zm-8.19,4.51a4.23,4.23,0,0,0,4.25-4.25A3.48,3.48,0,0,0,34,63a4.3,4.3,0,0,0-4.26,4.19A3.45,3.45,0,0,0,33.29,70.72Z"/><path d="M84.21,74.66A7,7,0,0,1,77,67.51,8.71,8.71,0,0,1,85.56,59a7.08,7.08,0,0,1,7.23,7.09A8.66,8.66,0,0,1,84.21,74.66Zm.34-3.93a4.24,4.24,0,0,0,4.25-4.17A3.46,3.46,0,0,0,85.21,63,4.3,4.3,0,0,0,81,67.17,3.48,3.48,0,0,0,84.55,70.73Z"/></svg>