<svg id="Livello_1" data-name="Livello 1" xmlns="http://www.w3.org/2000/svg" viewBox="0 0 100 100"><path d="M27.41.63a45.07,45.07,0,0,0-2,8.83,46.58,46.58,0,0,0,7.17,31.3A46.16,46.16,0,0,0,46,54.35a1,1,0,0,1,.51.94q0,13.89,0,27.77c0,.21,0,.41,0,.61-14-1-32-10.84-38.35-31.09A45,45,0,0,1,27.41.63Z"/><path d="M46.37,45.72c2.2-1,4-2.84,6.54-3.23a6.78,6.78,0,0,1,7.9,6.77c0,5.4,0,10.8,0,16.2a2,2,0,0,0,1.79,2.29,2,2,0,0,0,2.23-2.14c0-2.94,0-5.88,0-8.82V51.35c5.28-.49,10.07.53,14.06,4.15a16.19,16.19,0,0,1,5.52,12.39c0,7.27,0,14.53,0,21.79a2.5,2.5,0,0,1-2.84,2.83H74.41V78.11a2,2,0,0,0-4-.57,4.39,4.39,0,0,0-.06,1V89.81A10.09,10.09,0,0,1,60.46,100c-2.69,0-5.38,0-8.06,0-1.35,0-1.88-.54-1.88-1.89q0-22.32,0-44.66c0-3.29-1.16-5.85-4.06-7.52C46.45,45.9,46.44,45.85,46.37,45.72Z"/><path d="M53,15.2c-.25-.78-.49-1.45-.66-2.13a1.33,1.33,0,0,1,.14-.77C53.72,9.61,55,6.93,56.27,4.1L50.34,5.94l-.87-2.75L59.65,0c.25.77.5,1.48.68,2.21a1.41,1.41,0,0,1-.2.77C59,5.46,57.84,7.93,56.7,10.41c-.09.18-.17.37-.31.69l6.13-1.91.88,2.75Z"/><path d="M79.88,10.46a3.11,3.11,0,0,1-1.53,2.83c-1.55.93-3,2.06-4.47,3.11-.16.11-.32.24-.56.43l5,1.13-.51,2.24-8.4-1.88a3.21,3.21,0,0,1,1.38-2.72C72.5,14.52,74.13,13.25,76,12l-4.81-1.1.5-2.24Z"/><path d="M71.82,31.17l.6,1.75-6.51,2.27a2.46,2.46,0,0,1-.25-2.37c.75-1.49,1.33-3.06,2-4.75L64,29.34l-.63-1.74,6.39-2.22a2.42,2.42,0,0,1,.17,2.55c-.71,1.44-1.28,2.94-2,4.57Z"/><path d="M88.25,64.5l-1.34-4.66,4.93-2L92,58Z"/></svg>