<svg id="Livello_1" data-name="Livello 1" xmlns="http://www.w3.org/2000/svg" viewBox="0 0 100 100"><path d="M50,100a50,50,0,1,1,50-49.77A50,50,0,0,1,50,100Zm0-1.54A48.45,48.45,0,1,0,1.55,50,48.45,48.45,0,0,0,49.94,98.46Z"/><path d="M50,86A36,36,0,1,1,86,50.07,36,36,0,0,1,50,86ZM85.58,50A35.6,35.6,0,1,0,50.14,85.61,35.54,35.54,0,0,0,85.58,50Z"/><path d="M56.07,87.28v1.29a3.56,3.56,0,0,0-3.76,2.89h2.77v1.43h-2.7c.14,1.67,1.21,2.52,3.68,3v1.27a4.93,4.93,0,1,1,0-9.83Z"/><path d="M85.25,33.6c-.55-.44-.43-.81-.08-1.22,1-1.24,1-1.25.24-2.65s-.72-1.29-2.18-1a1,1,0,0,1-1.23-.5c-.79-1.16-1.68-2.25-2.59-3.45l5.47-4.24.46.61L80.43,25l2.26,3c1.91-.29,4-.63,6.13-.93a.9.9,0,0,1,.72.25.71.71,0,0,1,.06.69C88.18,29.87,86.73,31.72,85.25,33.6Zm3.84-6-3.75.7,1.29,2.24Z"/><path d="M39.11,6.77l1.06,5.68-.74.11L38.16,5.87c.92-.53,1.19-.46,1.66.39l2.29,4.1.34.56.19,0c.29-2,.59-4.07.9-6.17l1.12-.21c.43,2.28.86,4.51,1.3,6.82l-.74.15c-.35-1.82-.7-3.6-1-5.39h-.24l-.87,5.76c-.52.27-.8.11-1-.34-.78-1.44-1.6-2.85-2.41-4.28-.1-.17-.21-.34-.32-.51Z"/><path d="M49.14,97.15c-3.34-.12-5.38-2.22-5.23-5.31a4.88,4.88,0,0,1,5.22-4.56v1.3A4.08,4.08,0,0,0,46,90a3.55,3.55,0,0,0-.71,2.4c.05,2,1.18,3,3.85,3.48Z"/><path d="M12,57.73l-7,.92a29.36,29.36,0,0,1-.21-3.93,2.35,2.35,0,0,1,2-2A7.08,7.08,0,0,1,9,52.49a2.64,2.64,0,0,1,2.59,2.34C11.76,55.76,11.87,56.69,12,57.73Zm-6.33,0L11.21,57c-.12-.78-.19-1.49-.32-2.18a1.72,1.72,0,0,0-1.72-1.51,7.47,7.47,0,0,0-2.31.23A1.88,1.88,0,0,0,5.41,55.7C5.46,56.35,5.58,57,5.68,57.75Z"/><path d="M52.79,11.37l1-7c1.15.2,2.27.32,3.35.58A2.27,2.27,0,0,1,59,7.11a7.39,7.39,0,0,1-.31,2.77,2.43,2.43,0,0,1-2.75,1.83C54.89,11.66,53.89,11.49,52.79,11.37Zm.9-.58c.84.09,1.56.18,2.29.23a1.62,1.62,0,0,0,1.81-1.19,9.76,9.76,0,0,0,.36-2.63,1.45,1.45,0,0,0-1-1.45c-.84-.25-1.73-.36-2.66-.54Z"/><path d="M68.18,14.15a4.14,4.14,0,0,1,3.64-4,3.52,3.52,0,0,1,3.36,3.24c0,1.93-1.83,4-3.57,4A3.5,3.5,0,0,1,68.18,14.15ZM71.94,11a3.28,3.28,0,0,0-3,3.42,2.23,2.23,0,0,0,1.36,2.08,2.29,2.29,0,0,0,2.54-.24,3.8,3.8,0,0,0,1.44-2.35A2.37,2.37,0,0,0,71.94,11Z"/><path d="M7.59,33.42a3.33,3.33,0,0,1,3.31-3.37,3.88,3.88,0,0,1,3.91,3.53,3.36,3.36,0,0,1-3.36,3.34A3.83,3.83,0,0,1,7.59,33.42Zm4,2.7A2.34,2.34,0,0,0,14,34.5a2.31,2.31,0,0,0-.84-2.76,5.93,5.93,0,0,0-2-.84,2.36,2.36,0,0,0-2.83,2.35A3.16,3.16,0,0,0,11.58,36.12Z"/><path d="M28.94,11.3a3.3,3.3,0,0,1,3.37-3.21,3.93,3.93,0,0,1,3.52,4,3.4,3.4,0,0,1-3.39,3.22A3.89,3.89,0,0,1,28.94,11.3Zm.79.24a3.77,3.77,0,0,0,1.12,2.35,2.3,2.3,0,0,0,2.6.55A2.22,2.22,0,0,0,35,12.24a3.6,3.6,0,0,0-1.57-3.07A2.24,2.24,0,0,0,31,9.1,2.36,2.36,0,0,0,29.73,11.54Z"/><path d="M95.38,44.7c.11,1.59.23,3.1.29,4.61,0,.18-.29.37-.45.55L95,49.75c-.07-1.11-.2-2.22-.2-3.33,0-.71-.17-1-.89-.81a8.52,8.52,0,0,1-1.48.08l.22,3.86c-.53.28-.72.06-.74-.45-.06-1.08-.12-2.16-.19-3.34l-2.54.14c.08,1.49.15,2.88.23,4.31l-.68.11c-.11-1.72-.21-3.39-.32-5.17Z"/><path d="M46.94,11.27V4.35h4.92V5H47.75V7.29c1.16,0,2.24,0,3.31,0,.47,0,.73.08.52.74H47.8v2.56h4.33v.69Z"/><path d="M14.33,24.27c-.07.42-.24.59-.74.5a2.06,2.06,0,0,0-2,2.45.91.91,0,0,0,1.5.44c.55-.42,1-.93,1.56-1.38a2.16,2.16,0,0,1,2-.74,1.91,1.91,0,0,1,1.39,2.12,3.68,3.68,0,0,1-1.86,2.7,2,2,0,0,1-2.12-.08l.28-.55A2.27,2.27,0,0,0,17.29,28a1.2,1.2,0,0,0-.42-1.54,1.23,1.23,0,0,0-1.52.27c-.52.46-1,.95-1.54,1.4a1.68,1.68,0,0,1-2.56-.06c-.68-.8-.53-2,.38-3.07S13.37,23.7,14.33,24.27Z"/><path d="M93.4,43.2c-.3-.46-.32-.72.12-.94,1-.48.6-2.71-.23-3.15a.94.94,0,0,0-1.44.73c-.09.71-.1,1.42-.14,2.14A2,2,0,0,1,90.2,44.1a2.16,2.16,0,0,1-2.29-1.41c-.79-1.79-.28-3.38,1.35-4l.23.59a2.4,2.4,0,0,0-.88,3.26,1.24,1.24,0,0,0,1.44.81c.67-.14.8-.7.85-1.27s.07-1.43.14-2.14a1.78,1.78,0,0,1,1.38-1.7,1.86,1.86,0,0,1,1.89,1,2.89,2.89,0,0,1-.2,3.51A5.81,5.81,0,0,1,93.4,43.2Z"/><path d="M87.05,32.7l.35.64a2.39,2.39,0,0,0-.35,3.36,1.26,1.26,0,0,0,1.49.59c.63-.21.73-.73.69-1.28s-.13-1.33-.21-2a1.92,1.92,0,0,1,1.07-2.11,1.83,1.83,0,0,1,2.2.84c1,1.41.89,2.87-.21,3.71a1.41,1.41,0,0,1-.28.15L91.5,36a2,2,0,0,0,.09-3,1.62,1.62,0,0,0-1.16-.34c-.52.05-.64.55-.62,1s.11,1,.15,1.44A7.23,7.23,0,0,1,90,36.38a1.78,1.78,0,0,1-2.6,1.52c-1.33-.59-2.26-3.24-1.2-4.42C86.45,33.23,86.71,33,87.05,32.7Z"/><path d="M9.15,49.22v-.64a2.36,2.36,0,0,0,1.69-3.06,1.13,1.13,0,0,0-1-1,1,1,0,0,0-1.12.73c-.29.7-.54,1.42-.83,2.12-.43,1-1.07,1.43-1.95,1.28a1.86,1.86,0,0,1-1.48-1.84,2.84,2.84,0,0,1,.87-2.64,5.79,5.79,0,0,1,1.27-.6l.06.79A2,2,0,0,0,5.12,47a1,1,0,0,0,.85,1,.93.93,0,0,0,1.13-.67c.24-.63.44-1.26.68-1.89.45-1.17,1.24-1.74,2.14-1.58a2.16,2.16,0,0,1,1.68,2.31A6,6,0,0,1,11.2,48,2,2,0,0,1,9.15,49.22Z"/><path d="M12,42.55l-.21.75L5.07,41.67c.38-1.38.43-2.82,1.21-4.05a1.78,1.78,0,0,1,2.11-.56,1.85,1.85,0,0,1,1.4,2A16.45,16.45,0,0,1,9.39,41c-.2.89-.2.89.66,1.09Zm-3.43-.84c.17-1,.36-1.85.45-2.73.07-.7-.41-1-1-1.18a1.14,1.14,0,0,0-1.44.74c-.25.81-.43,1.63-.66,2.52Z"/><path d="M82.61,20.51,82,20.18c.44-1.6-.08-2.71-1.79-3.13a1.57,1.57,0,0,0-.61,0,4,4,0,0,0-2.89,2.78A2.2,2.2,0,0,0,77.48,22a2.07,2.07,0,0,0,2.19.38c.16-.05.3-.12.52-.21l.39.58a2.54,2.54,0,0,1-3.17,0A2.93,2.93,0,0,1,76,19.51a4.61,4.61,0,0,1,2.41-2.89,3.05,3.05,0,0,1,3.66.72A2.53,2.53,0,0,1,82.61,20.51Z"/><path d="M68.44,10.16,67.65,10a2,2,0,0,0-1.24-2,2.28,2.28,0,0,0-2.91.84,4.23,4.23,0,0,0-.79,2.6,2,2,0,0,0,1.34,2A2.1,2.1,0,0,0,66.46,13c.1-.1.18-.21.31-.36l.61.36a2.59,2.59,0,0,1-3,1.25,2.9,2.9,0,0,1-2.43-2.73A4.61,4.61,0,0,1,62.7,8.6a3,3,0,0,1,3.13-1.43,2.85,2.85,0,0,1,2.5,2.09A6.13,6.13,0,0,1,68.44,10.16Z"/><path d="M26.88,10.66c.35,1.54.7,3.06,1.05,4.58.17.74.35,1.48.49,2.23a.66.66,0,0,1-.2.55c-.16.13-.5.23-.63.14-2-1.31-3.91-2.66-5.86-4,.38-.49.69-.5,1.17-.14,1.49,1.16,3,2.25,4.56,3.36a2.89,2.89,0,0,0,.35.17l-.56-2.27c-.3-1.23-.58-2.47-.92-3.69C26.18,11.07,26.32,10.81,26.88,10.66Z"/><path d="M19.36,16.4l.3.28L18.15,18.3l4.31,4.62-.49.36L17.49,18.9,16,20.68l-.61-.52Z"/><path d="M95.22,57l-6.57-.86c-.5-.06-.43-.35-.31-.78l5.43.7-.69-1.68.12-.17c.2.1.46.16.58.32.45.62.86,1.28,1.27,1.94A2.54,2.54,0,0,1,95.22,57Z"/><path d="M20,25.49l-.45.63-5.41-4.33.44-.63Z"/><path d="M61.06,5.72l.77.16c-.59,2.28-1.17,4.5-1.75,6.77l-.75-.25Z"/><path d="M20.35,15.41l.57-.51,4.44,5.24-.53.56Z"/><path d="M11.3,50.49v.74H4.45l0-.74Z"/><path d="M47.41,18.54h5.16V47.38c.39,0,.7,0,1,0h27c.94,0,.94,0,.94.94v4.22H53.48c-.9,0-.9,0-.9.9v28H47.4v-28c0-.9,0-.9-.9-.9h-28V47.44H47.41Z"/><path d="M54.91,54.74H81.67v5.15H60.06V81.51H54.91Z"/><path d="M18.33,59.9V54.76H45.08V81.5H40V59.9Z"/><path d="M81.68,40.1v5.17H54.9V18.55H60V40.1Z"/><path d="M39.9,18.5c1.68,0,3.23,0,4.77,0,.45,0,.47.25.47.58,0,1.38,0,2.77,0,4.15q0,10.61,0,21.2v.86H18.33V40.15H39.9Z"/></svg>