<svg xmlns="http://www.w3.org/2000/svg" viewBox="0 0 74.14 78.68"><g id="Livello_2" data-name="Livello 2"><g id="Livello_1-2" data-name="Livello 1"><path d="M10.79,7.41a25.94,25.94,0,0,1,0-3.54A4.66,4.66,0,0,1,15.9,0a4.76,4.76,0,0,1,4.29,4.56c0,.92,0,1.84,0,2.79H54V4.85a4.75,4.75,0,1,1,9.5,0c0,.84,0,1.68,0,2.6h3A7.6,7.6,0,0,1,73.86,13a8.08,8.08,0,0,1,.27,2.13q0,27.9,0,55.8a7.62,7.62,0,0,1-7.65,7.7q-29.43,0-58.87,0A7.6,7.6,0,0,1,0,71Q0,43.08,0,15.14A7.64,7.64,0,0,1,7.75,7.41ZM4.93,28v.75q0,20.83,0,41.67c0,.21,0,.42,0,.62a2.74,2.74,0,0,0,2.95,2.72H66.27a3.64,3.64,0,0,0,.74-.06c1.44-.32,2.21-1.38,2.21-3.11v-42c0-.18,0-.35,0-.55Zm58.57-12A6.55,6.55,0,0,1,62.59,20,4.69,4.69,0,0,1,59,22a4.51,4.51,0,0,1-3.06-.91c-1.72-1.26-2.09-3.06-1.92-5.19-1,1.33-.93,4.13.66,5.93a5.45,5.45,0,0,0,7.1.89A5.28,5.28,0,0,0,63.5,15.93ZM20.24,16a17,17,0,0,1-.15,2.23,4.71,4.71,0,0,1-5,3.79,4.76,4.76,0,0,1-4.38-4.73V15.93a5.21,5.21,0,0,0,1.67,6.77,5.46,5.46,0,0,0,7.07-.76C21.09,20.16,21.23,17.32,20.24,16Z"/><path d="M20.79,50.81c0,.9,0,1.81,0,2.71a1.89,1.89,0,0,1-1.89,2c-1.91,0-3.82,0-5.73,0a1.87,1.87,0,0,1-1.8-1.91c0-1.85,0-3.7,0-5.55a1.93,1.93,0,0,1,2.1-1.94c1.72,0,3.45,0,5.17,0a2,2,0,0,1,2.14,2.15C20.79,49.12,20.79,50,20.79,50.81Z"/><path d="M53.36,50.84c0-.88,0-1.76,0-2.65a2,2,0,0,1,2-2.06c1.78,0,3.57,0,5.36,0a1.9,1.9,0,0,1,2,1.85q.09,2.87,0,5.73a1.84,1.84,0,0,1-1.94,1.82c-1.81,0-3.61,0-5.42,0a2,2,0,0,1-2-2.12Z"/><path d="M16.11,31.29h2.58a1.94,1.94,0,0,1,2.09,2.07c0,1.76,0,3.53,0,5.3a1.93,1.93,0,0,1-2.05,2c-1.79,0-3.58,0-5.36,0a1.91,1.91,0,0,1-2-1.87c0-1.88,0-3.78,0-5.66a1.9,1.9,0,0,1,2-1.88Z"/><path d="M58,70.41c-.85,0-1.69,0-2.53,0a2,2,0,0,1-2.15-2.15c0-1.72,0-3.45,0-5.17A2,2,0,0,1,55.43,61c1.76,0,3.53,0,5.29,0a1.93,1.93,0,0,1,2.06,2q.06,2.75,0,5.49a2,2,0,0,1-2,2h-.13Q59.33,70.43,58,70.41Z"/><path d="M58,40.7H55.39a2,2,0,0,1-2-2c0-1.81,0-3.61,0-5.42a1.93,1.93,0,0,1,2-2c1.8,0,3.61,0,5.42,0a1.89,1.89,0,0,1,2,1.91c0,1.84,0,3.69,0,5.54a1.93,1.93,0,0,1-2,2H58Z"/><path d="M20.79,65.7c0,.87,0,1.73,0,2.59a2,2,0,0,1-2.05,2.12c-1.79,0-3.57,0-5.36,0a1.92,1.92,0,0,1-2-1.92q-.07-2.8,0-5.61a1.9,1.9,0,0,1,2-1.89c1.78,0,3.57,0,5.36,0a2,2,0,0,1,2,2.13Z"/><path d="M25.36,65.66c0-.87,0-1.73,0-2.59a1.94,1.94,0,0,1,2-2.08c1.8,0,3.61,0,5.42,0a1.89,1.89,0,0,1,2,1.88q.06,2.81,0,5.61a1.93,1.93,0,0,1-2,1.93c-1.77,0-3.54,0-5.3,0a2,2,0,0,1-2.07-2.11c0-.88,0-1.76,0-2.64Z"/><path d="M44.1,70.41c-.9,0-1.8,0-2.71,0a1.93,1.93,0,0,1-2-2c0-1.85,0-3.7,0-5.54a1.91,1.91,0,0,1,2-1.92c1.79,0,3.58,0,5.36,0a1.94,1.94,0,0,1,2.06,2.1c0,1.75,0,3.49,0,5.24a2,2,0,0,1-2.09,2.08c-.86,0-1.72,0-2.59,0Z"/><path d="M30.11,31.29H32.7a1.92,1.92,0,0,1,2.08,2c0,1.81,0,3.62,0,5.42a1.93,1.93,0,0,1-2,2c-1.78,0-3.57,0-5.35,0a2,2,0,0,1-2.06-2.12c0-1.74,0-3.49,0-5.23a2,2,0,0,1,2-2.06Z"/><path d="M25.36,50.82c0-.89,0-1.77,0-2.65a2,2,0,0,1,2-2c1.81,0,3.61,0,5.42,0a1.92,1.92,0,0,1,2,1.87c0,1.89,0,3.78,0,5.66a1.88,1.88,0,0,1-2,1.88c-1.81,0-3.62,0-5.42,0a1.94,1.94,0,0,1-2-2.07C25.35,52.58,25.36,51.7,25.36,50.82Z"/><path d="M44.06,46.13c.9,0,1.8,0,2.71,0a2,2,0,0,1,2,2c0,1.79,0,3.57,0,5.36a1.92,1.92,0,0,1-2,2q-2.78,0-5.55,0a1.89,1.89,0,0,1-1.91-1.87c0-1.89,0-3.78,0-5.66a1.94,1.94,0,0,1,2-1.88h2.71Z"/><path d="M44.1,31.29h2.65a1.94,1.94,0,0,1,2,2c0,1.8,0,3.61,0,5.42a1.89,1.89,0,0,1-1.92,2c-1.87,0-3.73,0-5.6,0a1.91,1.91,0,0,1-1.88-1.91c0-1.84,0-3.69,0-5.54a1.91,1.91,0,0,1,2-2Z"/></g></g></svg>