<svg id="Livello_1" data-name="Livello 1" xmlns="http://www.w3.org/2000/svg" viewBox="0 0 100 100"><path d="M70.34,62.75l2.3,4.46.8,1.57c1.22,2.51,2.44,5,3.64,7.51.49,1,.94,2,1.42,3.07.09.2.31.35.37.56a2.77,2.77,0,0,1,.18,1.28c-.07.25-.56.51-.89.55a8.89,8.89,0,0,1-3.78-.57,12.45,12.45,0,0,0-1.74-.34c-.82-.12-1.66-.19-2.49-.33-.55-.09-1.08-.27-1.62-.39-.87-.18-1.75-.34-2.57-.5l-2.61,5.47c-.74,1.54-1.49,3.09-2.22,4.64a4.1,4.1,0,0,0-.26.77,1,1,0,0,1-1.58.79,2.63,2.63,0,0,1-1-1c-.78-1.49-1.47-3-2.21-4.52-.57-1.13-1.2-2.23-1.76-3.36-.66-1.33-1.25-2.7-1.91-4s-1.36-2.6-2-3.92c-.44-.89-.81-1.82-1.27-2.89-.21.36-.34.57-.46.79-.67,1.21-1.33,2.42-2,3.62s-1.33,2.36-2,3.55c-.43.8-.78,1.63-1.2,2.44-1.12,2.16-2.26,4.32-3.4,6.48L38,92.4q-1.28,2.35-2.56,4.7c-.42.77-.87,1.53-1.33,2.28a1.19,1.19,0,0,1-2.1,0c-.7-1.35-1.28-2.74-1.91-4.12-.39-.83-.78-1.67-1.14-2.51-.58-1.37-1.14-2.75-1.68-4.09-1.83.39-3.6.74-5.35,1.15-1.19.28-2.35.7-3.55,1a15.78,15.78,0,0,1-2.9.38,1.12,1.12,0,0,1-1-1.77q1.29-2.51,2.63-5c1-1.85,2-3.69,3-5.53,1.18-2.16,2.37-4.31,3.54-6.47.43-.8.78-1.64,1.2-2.44s1-1.73,1.41-2.61c.69-1.33,1.35-2.67,2-4l.26-.53c-1.48-.1-2.91-.22-4.33-.3-.95,0-1-.26-1.28-1.15a16.64,16.64,0,0,1-.37-4.6c-.05-1.31-1.1-1.6-2-2-1.28-.51-2.58-1-3.82-1.51-.65-.29-.51-1-.4-1.54s.39-1.15.53-1.74c.28-1.09.54-2.18.75-3.29a.92.92,0,0,0-.27-.71c-1.07-.9-2.15-1.77-3.26-2.62a2.07,2.07,0,0,1-.58-3c.43-.77.81-1.57,1.25-2.33.33-.58.74-1.12,1.06-1.7a.73.73,0,0,0,0-.63c-.85-1.44-1.76-2.83-2.57-4.28a1.53,1.53,0,0,1,.53-2.13c1.17-1,2.31-2,3.47-3a1,1,0,0,0,.28-1.16c-.33-1.17-.59-2.36-.87-3.55a1.75,1.75,0,0,0-.06-.33c-.85-1.85-.07-2.05,1.19-2.61a31,31,0,0,1,3.49-1.46c1.15-.33,1.31-1.08,1.3-2a12.34,12.34,0,0,1,0-1.72c.11-1,.29-1.91.47-2.86.1-.51.53-.58,1-.61,1.47-.1,3-.13,4.42-.33a1.79,1.79,0,0,0,1.68-1.21c.49-1.44,1.13-2.81,1.73-4.21.36-.82,1-1,1.92-.77a30.44,30.44,0,0,1,3.85.93c1.6.63,2-.59,2.75-1.41A30.35,30.35,0,0,1,42.58.38,2,2,0,0,1,45,.43a23.19,23.19,0,0,1,2,1.28c.49.31,1,.6,1.49.93s1.09.18,1.6-.16c1.11-.7,2.21-1.4,3.34-2.06s2-.56,3.06.68c.69.85,1.5,1.59,2.13,2.48a1.52,1.52,0,0,0,2.06.7c1.29-.45,2.66-.62,4-1,1.07-.27,1.54,0,1.92,1s.93,2.1,1.39,3.15a3.83,3.83,0,0,1,.22.65,1.58,1.58,0,0,0,1.69,1.39c.58,0,1.15,0,1.72,0,1,.08,2.08.21,3.12.32a.81.81,0,0,1,.76.83c.14,1.74.32,3.47.4,5.21a.91.91,0,0,0,.66.94c1.45.57,2.91,1.13,4.33,1.77a1.4,1.4,0,0,1,1,1.44c-.15,1-.42,2.07-.61,3.11-.16.87-.32,1.75-.42,2.63,0,.16.25.38.43.54L85,29.71a1.26,1.26,0,0,1,.28,1.52,11.86,11.86,0,0,1-.88,1.42,16.61,16.61,0,0,1-1.29,2.06c-.89,1.06-.67,1.91.13,2.93a29.35,29.35,0,0,1,1.94,3.25,1.37,1.37,0,0,1-.42,1.9c-1.26,1-2.52,2.1-3.74,3.19-.56.5-.16,1.16,0,1.73.26,1.37.66,2.72.84,4.1.16,1.18-.22,1.55-1.34,2-1.46.54-2.9,1.14-4.33,1.74a.58.58,0,0,0-.23.43c-.15,1.71-.29,3.43-.42,5.14-.07,1-.51,1.37-1.49,1.42C72.81,62.56,71.64,62.66,70.34,62.75ZM22.39,22.4c.19.93.36,1.78.54,2.64.12.53.21,1.07.37,1.58a1.63,1.63,0,0,1-.66,2.08c-1.06.83-2.07,1.72-3.08,2.57.22.53.41,1.07.67,1.57a12.28,12.28,0,0,0,.91,1.39,2.91,2.91,0,0,1,.08,3.7c-.61.93-1.15,1.91-1.59,2.65.6.7,1.14,1.39,1.76,2,.44.44,1,.78,1.46,1.21a1.61,1.61,0,0,1,.54,1.73c-.09.32-.12.67-.21,1a17.66,17.66,0,0,1-.6,2c-.29.72-.16,1.36.43,1.61l3.29,1.43a1.8,1.8,0,0,1,1.3,1.93c.06,1.35.2,2.7.3,4l4.47.4c.6.06,1.22.08,1.48.77.44,1.14.85,2.3,1.33,3.42.13.31.47.74.71.74a7.44,7.44,0,0,0,1.79-.34c.83-.19,1.65-.42,2.49-.57a1.39,1.39,0,0,1,1.34.53c1,1.16,2,2.3,3,3.4.43-.24.79-.43,1.13-.64a25.61,25.61,0,0,0,2.26-1.37c1.14-.85,1.55-.63,2.68,0s2.21,1.39,3.32,2.1c.54-.64,1-1.28,1.59-1.9a7.92,7.92,0,0,0,1.17-1.31,1.31,1.31,0,0,1,1.56-.81c1.28.23,2.54.58,3.82.83a1.12,1.12,0,0,0,.88-.11,3.77,3.77,0,0,0,.51-1.09c.41-1,.79-2,1.27-2.92A1.46,1.46,0,0,1,65.6,58c1.38-.17,2.77-.24,4.15-.33.27,0,.54,0,.74,0,.15-1.64.3-3.17.41-4.71,0-.54.14-1,.69-1.23,1.33-.55,2.65-1.12,4-1.65.49-.19.45-.46.29-.85a4.08,4.08,0,0,1-.28-.9c-.17-.79-.29-1.6-.47-2.39a1.83,1.83,0,0,1,.2-1.76c.59-.64,1.23-1.22,1.86-1.8s1.11-1,1.7-1.47c-.33-.54-.63-1-.92-1.49-.5-.85-1-1.71-1.51-2.55a1.74,1.74,0,0,1,.12-1.68c.81-1.22,1.58-2.47,2.39-3.75l-2.45-2c-.87-.72-1.79-1.4-1.47-2.76.12-.53.19-1.07.33-1.6s.4-1.33.58-2c.1-.36,0-.67-.39-.81a9.29,9.29,0,0,1-.87-.35,15.17,15.17,0,0,0-2.49-1A1.46,1.46,0,0,1,71,19.47c-.17-1.14-.24-2.3-.34-3.44,0-.41,0-.82,0-1.27-1.56-.11-3-.22-4.5-.31a2.06,2.06,0,0,1-1.77-1.35c-.46-1.26-1-2.49-1.53-3.86-1.55.39-3,.78-4.48,1.12a1.09,1.09,0,0,1-.78-.08,8.71,8.71,0,0,1-1.33-1.17c-.81-.89-1.58-1.83-2.39-2.78a8.21,8.21,0,0,1-1,.72,21,21,0,0,1-2.8,1.5,3.59,3.59,0,0,1-1.9,0,4.42,4.42,0,0,1-1.27-.76c-.8-.49-1.61-1-2.42-1.49-.16.16-.3.28-.42.42L41.22,10a1.12,1.12,0,0,1-1.49.21,2.67,2.67,0,0,0-.62-.21c-.73-.17-1.47-.31-2.18-.51s-1.49-.12-1.69.33c-.39.89-.72,1.8-1.08,2.7-.59,1.52-.82,1.91-2.33,1.91-1.31,0-2.61.19-3.95.3-.1,1.5-.2,2.92-.3,4.35a.75.75,0,0,1,0,.4,3.27,3.27,0,0,1-.83,1.11,15.68,15.68,0,0,1-2.07.83ZM38.91,67.67c-.74.15-1.59.3-2.42.49a11.8,11.8,0,0,0-1.87.54,2.94,2.94,0,0,1-2.74-.48c-2.75,5.21-5.5,10.41-8.3,15.73a6,6,0,0,0,.93,0c.88-.2,1.76-.42,2.63-.66.6-.16,1.2-.36,1.79-.57.74-.27,1.67,0,1.88.47s.48,1.22.74,1.82c.62,1.44,1.25,2.87,1.92,4.41.31-.55.54-1,.76-1.38.64-1.22,1.26-2.45,1.91-3.66s1.34-2.41,2-3.63c.54-1,1-2,1.59-3.07s1.07-1.93,1.6-2.9c.41-.73.77-1.49,1.22-2.19.24-.36.34-.57-.09-.81a1.38,1.38,0,0,1-.36-.4A17.77,17.77,0,0,0,41,69.84C40.34,69.08,39.61,68.38,38.91,67.67Zm20.54,0a9.47,9.47,0,0,0-.73.69c-.77.86-1.5,1.75-2.28,2.6-1,1.11-1,1.1-.35,2.44,0,0,0,0,0,.07l2.66,5.79c.21.45.48.87.79,1.43.34-.79.63-1.46.9-2.12.13-.3.2-.61.34-.89.38-.77.84-1.5,1.17-2.29.64-1.52,1-1.75,2.56-1.49a.57.57,0,0,1,.13,0l2.7.57,3.17.63-3.72-7.37-.17-.08c-.21,1.42-1.23,1.23-2.12,1.16a11.53,11.53,0,0,1-1.62-.38C61.77,68.17,60.65,67.93,59.45,67.67Z"/><path d="M55.24,29.17v3a27.88,27.88,0,0,1,3,0,6.5,6.5,0,0,1,4.53,2,17.85,17.85,0,0,1,1.79,2,4.17,4.17,0,0,1,.53,1.94,19.6,19.6,0,0,1,0,3.51,6.56,6.56,0,0,1-1.95,4,9.34,9.34,0,0,1-3.51,2.22c-1.18.44-2.37.22-3.54.53-.86.24-1.88-.2-2.82-.19A7.14,7.14,0,0,1,49.58,47,1.4,1.4,0,0,1,49,46a25.33,25.33,0,0,1,0-2.89c0-1,.7-1.38,1.66-1a12.06,12.06,0,0,0,2.34.82,26.86,26.86,0,0,0,3.59.28,2.57,2.57,0,0,0,2.56-1.38,3.11,3.11,0,0,0,0-3c-.78-1.34-2.06-1.51-3.28-1.57a18,18,0,0,0-3.44.53,1.58,1.58,0,0,1-.91-.11c-.61-.29-1.18-.66-1.77-1s-.52-1-.48-1.59c.09-1.38.27-2.76.39-4.14.1-1.06.17-2.13.27-3.2s.21-2,.32-3a.77.77,0,0,1,.84-.74q5.88,0,11.76,0a.8.8,0,0,1,.84.89c0,1.1,0,2.21,0,3.3,0,.72-.45,1-1.28,1H55.24Z"/><path d="M39,31.1c-.73.59-1.36,1.06-1.95,1.58a1.64,1.64,0,0,1-2.61-.38,11.82,11.82,0,0,0-1.14-1.52,1.08,1.08,0,0,1,.25-1.72c.72-.47,1.41-1,2.09-1.53A28.82,28.82,0,0,0,38.76,25c1.47-1.53,3.26-1,5-1,.26,0,.57.44.74.74a1.65,1.65,0,0,1,.07.81V46.39a5.63,5.63,0,0,1,0,.82,1,1,0,0,1-1,.94c-1.14,0-2.29,0-3.43,0a1,1,0,0,1-1-1,7.7,7.7,0,0,1,0-1V31.1Z"/></svg>