<svg id="Livello_1" data-name="Livello 1" xmlns="http://www.w3.org/2000/svg" viewBox="0 0 100 100"><path d="M42.53,40.77c-1.19-4.44-2.34-8.72-3.48-13C38.5,25.72,38,23.65,37.4,21.6a1.34,1.34,0,0,1,1.1-1.91q12.48-3.3,25-6.63c.86-.23,1.09.18,1.28.84q2.22,7.86,4.46,15.72c.33,1.18.65,2.37,1,3.67.55-.09,1.07-.14,1.57-.27,1.07-.27,2.12-.6,3.19-.89,1.69-.47,2-.3,2.45,1.36q4.5,16.82,9,33.61c.11.43.25.85.41,1.34l2.21-.55a2.41,2.41,0,0,1,3.11,1.8,2.37,2.37,0,0,1-1.77,3.14c-4.86,1.33-9.73,2.62-14.6,3.93C67.87,78.88,60,81,52,83.09a1.5,1.5,0,0,0-1.32,1.58c-.2,3.26-3,7.51-7.08,8.2-5.26.89-9.25-.37-11.63-5.14a9.75,9.75,0,0,1,3.1-12.29,1.35,1.35,0,0,0,.57-1.73Q28.26,46.1,20.87,18.48c-.08-.27-.18-.54-.32-.92a8.84,8.84,0,0,0-1.05.17c-2.5.66-5,1.35-7.49,2-1.75.46-3-.17-3.44-1.65a2.38,2.38,0,0,1,1.69-3.18Q16,13.27,21.77,11.76c1.68-.44,2.71.35,3.23,2.31q3.43,12.76,6.85,25.54Q36.2,55.83,40.53,72c.27,1,.57,1.72,1.81,1.62a7.92,7.92,0,0,1,1.85.29c-.17-.72-.3-1.3-.45-1.88L36.36,44.51c-.45-1.68-.25-2,1.4-2.44Zm-3.82,3.47c.49,1.81.92,3.47,1.37,5.12Q43.47,62,46.86,74.66c.56,2.07,1.79,2.77,3.82,2.23l29.83-8c1.21-.32,2.41-.68,3.69-1-3-11.18-6-22.22-9-33.43L63.59,37.58c1.32,5,2.61,9.82,4,14.83-.74-.08-1.27-.11-1.78-.2-5.39-.92-5.39-.92-9.41,2.27-.29.23-.57.46-.87.68l-1.12.78c-1.35-5-2.65-9.85-4-14.81Zm10.16-16.6c-.71-2.63-1.39-5.11-2.1-7.72l-6.9,1.86,4.94,18.4L67.93,34,63,15.57l-6.91,1.87c.7,2.61,1.34,5,2,7.69-1.33-.18-2.55-.3-3.74-.52a2.47,2.47,0,0,0-2.37.56C51.09,26,50,26.74,48.87,27.64ZM40.9,91a7.59,7.59,0,0,0,7.63-7.58A7.72,7.72,0,0,0,41,75.84a7.62,7.62,0,0,0-7.59,7.62A7.53,7.53,0,0,0,40.9,91Z"/><path d="M71.7,65.41c-.11-.08-.42-.19-.43-.33a.67.67,0,0,1,.36-.53c2.36-.66,4.73-1.31,7.11-1.92.15,0,.38.18.56.29-.12.17-.21.47-.37.51C76.56,64.1,74.19,64.73,71.7,65.41Z"/><path d="M80,65.2c-.64.87-7.3,2.6-8.29,1.78l8.17-2.17Z"/><path d="M59.82,33c.22-.17.41-.42.65-.49,1.1-.33,2.2-.62,3.31-.88a.91.91,0,0,1,.63.14c.06,0,0,.49-.09.51-1.43.42-2.87.8-4.31,1.19Z"/><path d="M64.05,29.61c-.31.26-.44.45-.61.5-1.17.33-2.34.65-3.53.93-.17,0-.39-.15-.59-.24.11-.18.18-.49.32-.53,1.21-.36,2.42-.69,3.65-1C63.47,29.24,63.71,29.46,64.05,29.61Z"/></svg>