<svg id="Livello_1" data-name="Livello 1" xmlns="http://www.w3.org/2000/svg" viewBox="0 0 100 100"><path d="M96,58.81Q89.37,70.63,82.76,82.44a10.56,10.56,0,0,1-10,5.84c-4.15-.07-8.31,0-12.72,0v6l-.47.12-4.66-8c-1.43-2.47-2.89-4.94-4.26-7.45a2,2,0,0,1-.12-1.62c2.94-5.21,5.95-10.39,9.4-15.53v5.83H79.75L68,47.11l17.8-10.27L96,55.12Z"/><path d="M11.91,40.31l-6-3.55c6.67,0,12.8,0,18.93,0a1.76,1.76,0,0,1,1.28.73c3.11,5.28,6.16,10.59,9.53,16.41l-6-3.35L19.78,67.69H43.52V88.14c-.67,0-1.26.12-1.85.12H26.28a9.62,9.62,0,0,1-8.76-4.77C13.26,76.35,9.16,69.1,5,61.9c-2-3.45-1.72-6.8.31-10.17C7.52,48.05,9.61,44.3,11.91,40.31Z"/><path d="M37.87,36.31,20.14,26.07c3.12-5.37,6.05-10.67,9.23-15.83A8.74,8.74,0,0,1,36.89,6c8.47-.11,17-.15,25.42,0,3.83,0,6.69,2,8.6,5.37C73,15,75.21,18.69,77.48,22.6l5.93-3.28c-1.3,2.28-2.35,4.13-3.41,6-1.87,3.25-3.71,6.52-5.65,9.72a2.78,2.78,0,0,1-1.76,1.34c-5.94.1-11.88.06-18-.37l5.11-3.13c-3.27-5.69-6.47-11.21-9.88-17.13Z"/></svg>